<?xml version="1.0" standalone="no"?>
<!DOCTYPE svg PUBLIC "-//W3C//DTD SVG 20010904//EN"
 "http://www.w3.org/TR/2001/REC-SVG-20010904/DTD/svg10.dtd">
<svg version="1.0" xmlns="http://www.w3.org/2000/svg"
 width="500.000000pt" height="500.000000pt" viewBox="0 0 500.000000 500.000000"
 preserveAspectRatio="xMidYMid meet">

<g transform="translate(0.000000,500.000000) scale(0.100000,-0.100000)"
fill="#000000" stroke="none">
<path d="M0 2500 l0 -2500 2500 0 2500 0 0 2500 0 2500 -2500 0 -2500 0 0
-2500z m4460 1205 l0 -35 -1960 0 -1960 0 0 35 0 35 1960 0 1960 0 0 -35z m0
-110 l0 -35 -1960 0 -1960 0 0 35 0 35 1960 0 1960 0 0 -35z m0 -110 l0 -35
-1960 0 -1960 0 0 35 0 35 1960 0 1960 0 0 -35z m0 -145 l0 -70 -1960 0 -1960
0 0 70 0 70 1960 0 1960 0 0 -70z m-2920 -365 l0 -105 105 0 105 0 0 -425 0
-425 -105 0 -105 0 0 105 0 105 -320 0 -320 0 0 -105 0 -105 -105 0 -105 0 0
425 0 425 105 0 105 0 2 -212 3 -213 318 -3 317 -2 0 215 0 215 -315 0 -315 0
0 105 0 105 315 0 315 0 0 -105z m1280 0 l0 -105 105 0 105 0 0 -105 0 -105
-105 0 -105 0 0 -105 0 -105 -320 0 -320 0 0 -110 0 -110 320 0 320 0 0 105 0
105 105 0 105 0 0 -105 0 -105 -105 0 -105 0 0 -105 0 -105 -425 0 -425 0 0
530 0 530 425 0 425 0 0 -105z m1490 0 l0 -105 -215 0 -215 0 0 -425 0 -425
-105 0 -105 0 0 425 0 425 -210 0 -210 0 0 105 0 105 530 0 530 0 0 -105z
m150 -1315 l0 -70 -1960 0 -1960 0 0 70 0 70 1960 0 1960 0 0 -70z m0 -145 l0
-35 -1960 0 -1960 0 0 35 0 35 1960 0 1960 0 0 -35z m0 -110 l0 -35 -1960 0
-1960 0 0 35 0 35 1960 0 1960 0 0 -35z m0 -110 l0 -35 -1960 0 -1960 0 0 35
0 35 1960 0 1960 0 0 -35z"/>
<path d="M2180 2765 l0 -105 320 0 320 0 0 105 0 105 -320 0 -320 0 0 -105z"/>
</g>
</svg>
